<?xml version="1.0" encoding="utf-8"?>
<!-- Generator: Adobe Illustrator 26.0.1, SVG Export Plug-In . SVG Version: 6.00 Build 0)  -->
<svg version="1.1" id="Layer_1" xmlns="http://www.w3.org/2000/svg" xmlns:xlink="http://www.w3.org/1999/xlink" x="0px" y="0px"
	 viewBox="0 0 170.6 164.3" style="enable-background:new 0 0 170.6 164.3;" xml:space="preserve">
<style type="text/css">
	.st0{fill:#FEFEFE;}
	.st1{fill:#010101;}
	.st2{fill:none;stroke:#CCCCCC;stroke-miterlimit:10;}
</style>
<g>
	<g>
		<path class="st0" d="M84.9,131.1c-15,0-29.9-0.1-44.9,0.1c-2.3,0-3.1-0.3-3.1-3C37,98.1,37,68,36.9,37.9c0-2.5,0.7-2.7,2.9-2.7
			c30.1,0.1,60.2,0.1,90.3,0c2.2,0,2.9,0.2,2.9,2.7c-0.1,30.3-0.1,60.6,0,90.8c0,2.2-0.6,2.5-2.6,2.5
			C115.2,131.1,100.1,131.1,84.9,131.1z"/>
		<path d="M85.6,121.2c-6.6,0-13.2,0.1-19.7,0c-6.6-0.1-10-3.4-10.1-10c-0.1-11-0.1-22.1,0-33.1c0-6.9,3.4-10.1,10.4-10.2
			c1.6,0,3.3,0.1,4.9,0c2.5-0.3,2.5,1.2,2.5,3c0,1.9-0.1,2.9-2.5,3c-9.4,0.6-9.4,0.7-9.4,10.2c0,8.6,0.1,17.1-0.1,25.7
			c-0.1,3.9,1,5.7,5.3,5.6c12.3-0.2,24.7-0.2,37,0c3.8,0,5.3-1.3,5.2-5.2c-0.2-10.2-0.3-20.4,0-30.6c0.1-4.7-1.6-6.3-6.1-5.8
			c-1.3,0.2-2.6-0.1-3.9,0c-2,0.2-2.1-1.1-1.9-2.5c0.2-1.2-1-3.4,1.5-3.4c3.4,0,6.9-0.7,10.3,0.5c4,1.5,6,4.5,6,8.7
			c0,11.5,0.1,23,0,34.6c-0.1,6-3.6,9.4-9.6,9.5C98.8,121.3,92.2,121.2,85.6,121.2z"/>
		<path class="st1" d="M81.4,54.9c-1.2,1.3-2.5,2.6-3.6,4.1c-1.4,1.8-2.6,2-4.2,0.1c-1.4-1.5-2.3-2.4-0.3-4.2
			c3.5-3.2,6.9-6.6,10.1-10.1c1.5-1.6,2.5-1.5,3.9,0.1c3.3,3.5,6.6,6.9,10.1,10.1c2.1,1.9,1,2.8-0.4,4.2c-1.4,1.5-2.4,1.9-3.9,0.1
			c-1.2-1.5-2.6-2.9-4.9-5.5c0,6.3,0,11.1,0,16c0,8.4-0.1,16.8,0.1,25.2c0.1,2.8-1.4,2.6-3.3,2.7c-2.2,0.1-2.7-0.7-2.7-2.8
			c0.1-13.1,0-26.2,0-39.3C82.1,55.2,81.8,55,81.4,54.9z"/>
	</g>
</g>
<circle class="st2" cx="84.9" cy="83.2" r="79.1"/>
</svg>
