<?xml version="1.0" encoding="utf-8"?>
<!-- Generator: Adobe Illustrator 26.0.1, SVG Export Plug-In . SVG Version: 6.00 Build 0)  -->
<svg version="1.1" id="Layer_1" xmlns="http://www.w3.org/2000/svg" xmlns:xlink="http://www.w3.org/1999/xlink" x="0px" y="0px"
	 viewBox="0 0 119.5 22.7" style="enable-background:new 0 0 119.5 22.7;" xml:space="preserve">
<style type="text/css">
	.st0{fill:#FFA41C;stroke:#E47911;stroke-width:1.5;stroke-linecap:round;stroke-linejoin:round;}
	.st1{fill:#FFA41C;}
	.st2{fill:none;stroke:#E47911;stroke-width:1.5;stroke-linecap:round;stroke-linejoin:round;}
</style>
<path class="st0" d="M8.5,7.8l2.6-5.2c0.3-0.7,1.3-0.7,1.6,0l2.6,5.2l5.8,0.8c0.7,0.1,1,1,0.5,1.5l-4.2,4.1l1,5.7
	c0.1,0.7-0.7,1.3-1.3,1l-5.2-2.7L6.7,21c-0.7,0.3-1.4-0.2-1.3-1l1-5.7l-4.2-4.1C1.7,9.7,2,8.8,2.7,8.7L8.5,7.8z"/>
<path class="st0" d="M32.3,7.8l2.6-5.2c0.3-0.7,1.3-0.7,1.6,0l2.6,5.2L45,8.7c0.7,0.1,1,1,0.5,1.5l-4.2,4.1l1,5.7
	c0.1,0.7-0.7,1.3-1.3,1l-5.2-2.7L30.6,21c-0.7,0.3-1.4-0.2-1.3-1l1-5.7L26,10.2c-0.5-0.5-0.2-1.4,0.5-1.5L32.3,7.8z"/>
<path class="st0" d="M56.2,7.8l2.6-5.2c0.3-0.7,1.3-0.7,1.6,0L63,7.8l5.8,0.8c0.7,0.1,1,1,0.5,1.5l-4.2,4.1l1,5.7
	c0.1,0.7-0.7,1.3-1.3,1l-5.2-2.7L54.4,21c-0.7,0.3-1.4-0.2-1.3-1l1-5.7l-4.2-4.1c-0.5-0.5-0.2-1.4,0.5-1.5L56.2,7.8z"/>
<path class="st0" d="M80,7.8l2.6-5.2c0.3-0.7,1.3-0.7,1.6,0l2.6,5.2l5.8,0.8c0.7,0.1,1,1,0.5,1.5l-4.2,4.1l1,5.7
	c0.1,0.7-0.7,1.3-1.3,1l-5.2-2.7L78.2,21c-0.7,0.3-1.4-0.2-1.3-1l1-5.7l-4.2-4.1c-0.5-0.5-0.2-1.4,0.5-1.5L80,7.8z"/>
<g>
	<path class="st1" d="M107.2,2.1c-0.3,0-0.6,0.2-0.8,0.5l-2.6,5.2L98,8.7c-0.7,0.1-1,1-0.5,1.5l4.2,4.1l-1,5.7
		c-0.1,0.7,0.7,1.3,1.3,1l5.2-2.7V2.1z"/>
	<path class="st2" d="M103.8,7.8l2.6-5.2c0.3-0.7,1.3-0.7,1.6,0l2.6,5.2l5.8,0.8c0.7,0.1,1,1,0.5,1.5l-4.2,4.1l1,5.7
		c0.1,0.7-0.7,1.3-1.3,1l-5.2-2.7L102,21c-0.7,0.3-1.4-0.2-1.3-1l1-5.7l-4.2-4.1c-0.5-0.5-0.2-1.4,0.5-1.5L103.8,7.8z"/>
</g>
</svg>
