<svg id="Layer_1" data-name="Layer 1" xmlns="http://www.w3.org/2000/svg" viewBox="0 0 16 16"><defs><style>.cls-1{fill:#fff;}</style></defs><path class="cls-1" d="M7.3,15.24c-2.1,0-4.2,0-6.31,0a3,3,0,0,1-1-.36,2.87,2.87,0,0,1,.41-1Q6.92,7.33,13.49.82c.21-.21.71-.47.84-.37a1.25,1.25,0,0,1,.46.91c0,4.27,0,8.54,0,12.81,0,.82-.33,1.09-1.11,1.08C11.57,15.22,9.43,15.24,7.3,15.24Zm6.2-4.34V2.77l-8.88,8.9.94,2.25h4.91c0-.73,0-1.39,0-2s.27-1,1-1S12.8,10.9,13.5,10.9Zm.05,1.32H11.78v1.7h1.77Zm-9.84.43L2.33,14H4.22Z"/></svg>