<?xml version="1.0" encoding="utf-8"?>
<!-- Generator: Adobe Illustrator 26.0.1, SVG Export Plug-In . SVG Version: 6.00 Build 0)  -->
<svg version="1.1" id="Layer_1" xmlns="http://www.w3.org/2000/svg" xmlns:xlink="http://www.w3.org/1999/xlink" x="0px" y="0px"
	 viewBox="0 0 135.9 65" style="enable-background:new 0 0 135.9 65;" xml:space="preserve">
<style type="text/css">
	.st0{fill:#FFFFFF;}
</style>
<g>
	<path class="st0" d="M0,3.8h5.9v40.8h19.6v5H0V3.8z"/>
	<path class="st0" d="M60.7,32.8c0,12.2-8.4,17.5-16.4,17.5c-8.9,0-15.8-6.5-15.8-16.9c0-11,7.2-17.5,16.3-17.5
		C54.3,15.9,60.7,22.8,60.7,32.8z M34.6,33.2c0,7.2,4.1,12.6,10,12.6c5.7,0,10-5.4,10-12.8c0-5.6-2.8-12.6-9.9-12.6
		S34.6,26.9,34.6,33.2z"/>
	<path class="st0" d="M96.5,16.7c-0.1,2.4-0.3,5-0.3,9v19.1c0,7.5-1.5,12.2-4.7,15c-3.2,3-7.8,3.9-12,3.9c-3.9,0-8.3-1-10.9-2.7
		l1.5-4.6c2.2,1.4,5.6,2.6,9.6,2.6c6.1,0,10.6-3.2,10.6-11.5v-3.7h-0.1c-1.8,3.1-5.4,5.5-10.5,5.5c-8.2,0-14-6.9-14-16
		c0-11.1,7.3-17.5,14.8-17.5c5.7,0,8.8,3,10.3,5.7H91l0.3-5H96.5z M90.3,29.6c0-1-0.1-1.9-0.3-2.7c-1.1-3.5-4-6.3-8.4-6.3
		c-5.7,0-9.8,4.8-9.8,12.4c0,6.5,3.3,11.8,9.7,11.8c3.7,0,7-2.3,8.3-6.1c0.3-1,0.5-2.2,0.5-3.2V29.6z"/>
	<path class="st0" d="M135.9,32.8c0,12.2-8.4,17.5-16.4,17.5c-8.9,0-15.8-6.5-15.8-16.9c0-11,7.2-17.5,16.3-17.5
		C129.5,15.9,135.9,22.8,135.9,32.8z M109.8,33.2c0,7.2,4.1,12.6,10,12.6c5.7,0,10-5.4,10-12.8c0-5.6-2.8-12.6-9.9-12.6
		C112.9,20.4,109.8,26.9,109.8,33.2z"/>
</g>
</svg>
