<?xml version="1.0" encoding="utf-8"?>
<!-- Generator: Adobe Illustrator 26.0.1, SVG Export Plug-In . SVG Version: 6.00 Build 0)  -->
<svg version="1.1" id="Layer_1" xmlns="http://www.w3.org/2000/svg" xmlns:xlink="http://www.w3.org/1999/xlink" x="0px" y="0px"
	 viewBox="0 0 300.5 130.7" style="enable-background:new 0 0 300.5 130.7;" xml:space="preserve">
<style type="text/css">
	.st0{fill:#818282;}
</style>
<g>
	<path class="st0" d="M0,0h12.9v88.9h42.6v10.8H0V0z"/>
	<path class="st0" d="M132.2,63.3c0,26.5-18.4,38-35.7,38c-19.4,0-34.3-14.2-34.3-36.9c0-24,15.7-38,35.5-38
		C118.2,26.5,132.2,41.4,132.2,63.3z M75.3,64.1c0,15.7,9,27.5,21.8,27.5c12.4,0,21.8-11.7,21.8-27.8c0-12.1-6.1-27.5-21.5-27.5
		S75.3,50.5,75.3,64.1z"/>
	<path class="st0" d="M210.3,28.1c-0.3,5.2-0.6,11-0.6,19.7v41.6c0,16.4-3.3,26.5-10.2,32.7c-7,6.5-17,8.6-26,8.6
		c-8.6,0-18.1-2.1-23.8-5.9l3.3-9.9c4.7,3,12.1,5.6,21,5.6c13.3,0,23.1-7,23.1-25v-8h-0.3c-4,6.7-11.7,12-22.8,12
		c-17.8,0-30.5-15.1-30.5-34.9c0-24.3,15.8-38,32.3-38c12.4,0,19.2,6.5,22.3,12.4h0.3l0.6-10.8H210.3z M196.8,56.4
		c0-2.2-0.1-4.1-0.7-5.9c-2.4-7.5-8.7-13.8-18.2-13.8c-12.4,0-21.3,10.5-21.3,27.1c0,14.1,7.1,25.8,21.2,25.8c8,0,15.2-5,18.1-13.3
		c0.7-2.2,1-4.7,1-7V56.4z"/>
	<path class="st0" d="M296.1,63.3c0,26.5-18.3,38-35.7,38c-19.4,0-34.3-14.2-34.3-36.9c0-24,15.7-38,35.5-38
		C282.2,26.5,296.1,41.4,296.1,63.3z M239.3,64.1c0,15.7,9,27.5,21.8,27.5c12.4,0,21.8-11.7,21.8-27.8c0-12.1-6.1-27.5-21.5-27.5
		C246,36.3,239.3,50.5,239.3,64.1z"/>
</g>
</svg>
